<?xml version="1.0" encoding="UTF-8"?>
<svg xmlns="http://www.w3.org/2000/svg" xmlns:xlink="http://www.w3.org/1999/xlink" width="40px" height="40px" viewBox="0 0 40 40" version="1.1">
<g id="surface1">
<path style=" stroke:none;fill-rule:nonzero;fill:rgb(0%,0%,0%);fill-opacity:1;" d="M 40.371094 0.742188 C 40.371094 4.453125 40.371094 8.164062 40.246094 12.121094 C 39.421875 16.253906 38.066406 19.863281 35.40625 23 C 34.230469 24.023438 33.164062 24.992188 31.953125 25.964844 C 30.09375 26.714844 28.378906 27.460938 26.515625 28.195312 C 24.488281 28.4375 22.609375 28.695312 20.585938 28.933594 C 18.316406 28.800781 16.195312 28.691406 13.914062 28.542969 C 13.617188 27.902344 13.34375 27.296875 13.351562 26.695312 C 13.445312 17.917969 13.578125 9.144531 13.703125 0.371094 C 21.613281 0.371094 29.523438 0.371094 37.671875 0.503906 C 36.753906 1.066406 35.597656 1.492188 34.300781 1.949219 C 33.023438 2.328125 31.878906 2.675781 30.601562 3.054688 C 29.308594 3.421875 28.15625 3.761719 26.921875 4.128906 C 27.433594 5.046875 27.828125 5.710938 28.179688 6.394531 C 29.226562 8.410156 29.21875 8.414062 31.242188 7.023438 C 32.644531 6.011719 33.933594 5.054688 35.335938 4.042969 C 37.089844 2.90625 38.730469 1.824219 40.371094 0.742188 M 33.558594 10.839844 C 32.433594 10.5625 31.304688 10.285156 29.960938 9.957031 C 30.164062 11.707031 30.335938 13.222656 30.527344 14.894531 C 31.65625 14.582031 32.675781 14.296875 33.976562 13.960938 C 35.523438 13.511719 37.070312 13.058594 38.613281 12.609375 C 38.597656 12.480469 38.582031 12.351562 38.566406 12.21875 C 36.953125 11.835938 35.335938 11.453125 33.558594 10.839844 M 24.695312 8.621094 C 24.125 8.449219 23.550781 8.277344 22.816406 7.871094 C 22.246094 7.859375 21.679688 7.847656 20.835938 7.789062 C 20.179688 8.019531 19.527344 8.246094 18.636719 8.589844 C 18.058594 9.171875 17.378906 9.679688 16.917969 10.34375 C 15.078125 13.003906 16.058594 17.84375 19.125 18.953125 C 19.789062 19.15625 20.449219 19.363281 21.417969 19.621094 C 21.933594 19.601562 22.449219 19.585938 23.207031 19.535156 C 23.75 19.214844 24.292969 18.890625 25.0625 18.449219 C 27.910156 15.605469 27.808594 11.445312 24.695312 8.621094 M 32.265625 21.144531 C 33.246094 21.285156 34.230469 21.421875 35.648438 21.621094 C 33.660156 19.691406 32.050781 18.128906 30.394531 16.523438 C 29.960938 17.960938 29.507812 19.476562 29.015625 21.117188 C 30.097656 21.117188 31.019531 21.117188 32.265625 21.144531 M 28.523438 25.257812 C 28.414062 24.425781 28.304688 23.59375 28.148438 22.363281 C 27.003906 23.730469 26.195312 24.703125 25.226562 25.863281 C 26.332031 26.140625 27.335938 26.390625 28.335938 26.640625 C 28.40625 26.28125 28.472656 25.921875 28.523438 25.257812 Z M 28.523438 25.257812 "/>
<path style=" stroke:none;fill-rule:nonzero;fill:rgb(89.019608%,19.607843%,15.294118%);fill-opacity:1;" d="M 0.371094 4.816406 C 0.371094 4.535156 0.371094 4.257812 0.507812 3.929688 C 3.265625 3.183594 5.882812 2.488281 8.507812 1.96875 C 8.53125 6.210938 8.574219 10.273438 8.570312 14.335938 C 8.566406 23.015625 8.535156 31.691406 8.519531 40.371094 C 8.125 40.371094 7.726562 40.371094 7.246094 40.226562 C 6.785156 39.929688 6.425781 39.6875 6.042969 39.644531 C 3.386719 39.355469 3.332031 39.308594 3.332031 36.640625 C 3.332031 27.085938 3.332031 17.53125 3.328125 7.972656 C 3.328125 6.050781 2.472656 5.148438 0.371094 4.816406 Z M 0.371094 4.816406 "/>
<path style=" stroke:none;fill-rule:nonzero;fill:rgb(87.058824%,17.254902%,15.294118%);fill-opacity:1;" d="M 8.691406 40.371094 C 8.535156 31.691406 8.566406 23.015625 8.570312 14.335938 C 8.574219 10.273438 8.53125 6.210938 8.582031 1.851562 C 9.476562 1.164062 10.292969 0.765625 11.109375 0.371094 C 11.867188 0.371094 12.625 0.371094 13.542969 0.371094 C 13.578125 9.144531 13.445312 17.917969 13.351562 26.695312 C 13.34375 27.296875 13.617188 27.902344 13.914062 28.710938 C 14.074219 32.738281 14.074219 36.554688 14.074219 40.371094 C 12.335938 40.371094 10.601562 40.371094 8.691406 40.371094 Z M 8.691406 40.371094 "/>
<path style=" stroke:none;fill-rule:nonzero;fill:rgb(0%,0%,0%);fill-opacity:1;" d="M 40.371094 19.628906 C 40.371094 26.515625 40.371094 33.398438 40.371094 40.371094 C 34.191406 40.371094 28.007812 40.371094 21.59375 40.230469 C 23.253906 39.332031 25.152344 38.578125 27.1875 37.800781 C 28.96875 36.671875 30.617188 35.566406 32.375 34.40625 C 33.769531 32.539062 35.050781 30.722656 36.449219 28.851562 C 37.585938 26.03125 38.589844 23.261719 39.640625 20.511719 C 39.769531 20.175781 40.121094 19.921875 40.371094 19.628906 Z M 40.371094 19.628906 "/>
<path style=" stroke:none;fill-rule:nonzero;fill:rgb(0%,0%,0%);fill-opacity:1;" d="M 0.371094 4.988281 C 2.472656 5.148438 3.328125 6.050781 3.328125 7.972656 C 3.332031 17.53125 3.332031 27.085938 3.332031 36.640625 C 3.332031 39.308594 3.386719 39.355469 6.042969 39.644531 C 6.425781 39.6875 6.785156 39.929688 7.097656 40.226562 C 4.824219 40.371094 2.609375 40.371094 0.371094 40.371094 C 0.371094 28.632812 0.371094 16.898438 0.371094 4.988281 Z M 0.371094 4.988281 "/>
<path style=" stroke:none;fill-rule:nonzero;fill:rgb(84.705883%,14.901961%,14.901961%);fill-opacity:1;" d="M 14.246094 40.371094 C 14.074219 36.554688 14.074219 32.738281 14.070312 28.75 C 16.195312 28.691406 18.316406 28.800781 20.535156 29.074219 C 20.542969 32.945312 20.457031 36.65625 20.371094 40.371094 C 18.386719 40.371094 16.402344 40.371094 14.246094 40.371094 Z M 14.246094 40.371094 "/>
<path style=" stroke:none;fill-rule:nonzero;fill:rgb(82.352942%,12.156863%,14.509805%);fill-opacity:1;" d="M 20.507812 40.371094 C 20.457031 36.65625 20.542969 32.945312 20.679688 29.09375 C 22.609375 28.695312 24.488281 28.4375 26.542969 28.324219 C 26.722656 29.082031 26.707031 29.691406 26.730469 30.300781 C 26.832031 32.808594 26.945312 35.3125 27.054688 37.820312 C 25.152344 38.578125 23.253906 39.332031 21.417969 40.230469 C 21.203125 40.371094 20.925781 40.371094 20.507812 40.371094 Z M 20.507812 40.371094 "/>
<path style=" stroke:none;fill-rule:nonzero;fill:rgb(77.254903%,6.27451%,14.117648%);fill-opacity:1;" d="M 40.371094 19.457031 C 40.121094 19.921875 39.769531 20.175781 39.640625 20.511719 C 38.589844 23.261719 37.585938 26.03125 36.382812 28.710938 C 35.96875 26.738281 35.742188 24.839844 35.515625 22.945312 C 38.066406 19.863281 39.421875 16.253906 40.246094 12.292969 C 40.371094 14.574219 40.371094 16.929688 40.371094 19.457031 Z M 40.371094 19.457031 "/>
<path style=" stroke:none;fill-rule:nonzero;fill:rgb(0%,0%,0%);fill-opacity:1;" d="M 10.9375 0.371094 C 10.292969 0.765625 9.476562 1.164062 8.582031 1.675781 C 5.882812 2.488281 3.265625 3.183594 0.507812 3.789062 C 0.371094 2.605469 0.371094 1.507812 0.371094 0.371094 C 3.835938 0.371094 7.300781 0.371094 10.9375 0.371094 Z M 10.9375 0.371094 "/>
<path style=" stroke:none;fill-rule:nonzero;fill:rgb(80.392158%,9.411765%,14.117648%);fill-opacity:1;" d="M 40.371094 0.554688 C 38.730469 1.824219 37.089844 2.90625 35.238281 3.953125 C 34.832031 3.253906 34.632812 2.585938 34.4375 1.917969 C 35.597656 1.492188 36.753906 1.066406 37.84375 0.503906 C 38.640625 0.371094 39.507812 0.371094 40.371094 0.554688 Z M 40.371094 0.554688 "/>
<path style=" stroke:none;fill-rule:nonzero;fill:rgb(80.392158%,9.411765%,14.117648%);fill-opacity:1;" d="M 27.1875 37.800781 C 26.945312 35.3125 26.832031 32.808594 26.730469 30.300781 C 26.707031 29.691406 26.722656 29.082031 26.691406 28.339844 C 28.378906 27.460938 30.09375 26.714844 31.964844 26.144531 C 32.0625 26.988281 31.933594 27.65625 31.957031 28.316406 C 32.027344 30.367188 32.15625 32.414062 32.261719 34.460938 C 30.617188 35.566406 28.96875 36.671875 27.1875 37.800781 Z M 27.1875 37.800781 "/>
<path style=" stroke:none;fill-rule:nonzero;fill:rgb(78.823531%,7.843138%,14.117648%);fill-opacity:1;" d="M 32.375 34.40625 C 32.15625 32.414062 32.027344 30.367188 31.957031 28.316406 C 31.933594 27.65625 32.0625 26.988281 32.109375 26.140625 C 33.164062 24.992188 34.230469 24.023438 35.40625 23 C 35.742188 24.839844 35.96875 26.738281 36.265625 28.769531 C 35.050781 30.722656 33.769531 32.539062 32.375 34.40625 Z M 32.375 34.40625 "/>
<path style=" stroke:none;fill-rule:nonzero;fill:rgb(89.019608%,19.607843%,15.294118%);fill-opacity:1;" d="M 18.886719 18.828125 C 16.058594 17.84375 15.078125 13.003906 16.917969 10.34375 C 17.378906 9.679688 18.058594 9.171875 18.808594 8.679688 C 18.949219 12.121094 18.917969 15.476562 18.886719 18.828125 Z M 18.886719 18.828125 "/>
<path style=" stroke:none;fill-rule:nonzero;fill:rgb(84.705883%,14.901961%,14.901961%);fill-opacity:1;" d="M 19.003906 18.890625 C 18.917969 15.476562 18.949219 12.121094 18.925781 8.621094 C 19.527344 8.246094 20.179688 8.019531 20.972656 7.984375 C 21.109375 11.972656 21.109375 15.773438 21.109375 19.570312 C 20.449219 19.363281 19.789062 19.15625 19.003906 18.890625 Z M 19.003906 18.890625 "/>
<path style=" stroke:none;fill-rule:nonzero;fill:rgb(82.352942%,12.156863%,14.509805%);fill-opacity:1;" d="M 21.261719 19.59375 C 21.109375 15.773438 21.109375 11.972656 21.109375 8.007812 C 21.679688 7.847656 22.246094 7.859375 22.894531 8.164062 C 22.972656 12.160156 22.96875 15.863281 22.964844 19.566406 C 22.449219 19.585938 21.933594 19.601562 21.261719 19.59375 Z M 21.261719 19.59375 "/>
<path style=" stroke:none;fill-rule:nonzero;fill:rgb(78.823531%,7.843138%,14.117648%);fill-opacity:1;" d="M 24.832031 8.839844 C 27.808594 11.445312 27.910156 15.605469 24.914062 18.355469 C 24.785156 15.121094 24.808594 11.980469 24.832031 8.839844 Z M 24.832031 8.839844 "/>
<path style=" stroke:none;fill-rule:nonzero;fill:rgb(80.392158%,9.411765%,14.117648%);fill-opacity:1;" d="M 24.761719 8.730469 C 24.808594 11.980469 24.785156 15.121094 24.800781 18.417969 C 24.292969 18.890625 23.75 19.214844 23.085938 19.550781 C 22.96875 15.863281 22.972656 12.160156 22.980469 8.28125 C 23.550781 8.277344 24.125 8.449219 24.761719 8.730469 Z M 24.761719 8.730469 "/>
<path style=" stroke:none;fill-rule:nonzero;fill:rgb(84.705883%,14.901961%,14.901961%);fill-opacity:1;" d="M 32.101562 21.132812 C 31.019531 21.117188 30.097656 21.117188 29.015625 21.117188 C 29.507812 19.476562 29.960938 17.960938 30.394531 16.523438 C 32.050781 18.128906 33.660156 19.691406 35.648438 21.621094 C 34.230469 21.421875 33.246094 21.285156 32.101562 21.132812 Z M 32.101562 21.132812 "/>
<path style=" stroke:none;fill-rule:nonzero;fill:rgb(84.705883%,14.901961%,14.901961%);fill-opacity:1;" d="M 33.699219 14.011719 C 32.675781 14.296875 31.65625 14.582031 30.527344 14.894531 C 30.335938 13.222656 30.164062 11.707031 29.960938 9.957031 C 31.304688 10.285156 32.433594 10.5625 33.636719 11.117188 C 33.710938 12.269531 33.707031 13.140625 33.699219 14.011719 Z M 33.699219 14.011719 "/>
<path style=" stroke:none;fill-rule:nonzero;fill:rgb(87.058824%,17.254902%,15.294118%);fill-opacity:1;" d="M 31.128906 7.078125 C 29.21875 8.414062 29.226562 8.410156 28.179688 6.394531 C 27.828125 5.710938 27.433594 5.046875 26.921875 4.128906 C 28.15625 3.761719 29.308594 3.421875 30.601562 3.214844 C 30.867188 4.589844 30.996094 5.832031 31.128906 7.078125 Z M 31.128906 7.078125 "/>
<path style=" stroke:none;fill-rule:nonzero;fill:rgb(84.705883%,14.901961%,14.901961%);fill-opacity:1;" d="M 31.242188 7.023438 C 30.996094 5.832031 30.867188 4.589844 30.738281 3.183594 C 31.878906 2.675781 33.023438 2.328125 34.300781 1.949219 C 34.632812 2.585938 34.832031 3.253906 35.125 4.007812 C 33.933594 5.054688 32.644531 6.011719 31.242188 7.023438 Z M 31.242188 7.023438 "/>
<path style=" stroke:none;fill-rule:nonzero;fill:rgb(80.392158%,9.411765%,14.117648%);fill-opacity:1;" d="M 33.839844 13.988281 C 33.707031 13.140625 33.710938 12.269531 33.71875 11.234375 C 35.335938 11.453125 36.953125 11.835938 38.566406 12.21875 C 38.582031 12.351562 38.597656 12.480469 38.613281 12.609375 C 37.070312 13.058594 35.523438 13.511719 33.839844 13.988281 Z M 33.839844 13.988281 "/>
<path style=" stroke:none;fill-rule:nonzero;fill:rgb(89.019608%,19.607843%,15.294118%);fill-opacity:1;" d="M 28.53125 25.410156 C 28.472656 25.921875 28.40625 26.28125 28.335938 26.640625 C 27.335938 26.390625 26.332031 26.140625 25.226562 25.863281 C 26.195312 24.703125 27.003906 23.730469 28.148438 22.363281 C 28.304688 23.59375 28.414062 24.425781 28.53125 25.410156 Z M 28.53125 25.410156 "/>
</g>
</svg>
